<mxfile host="65bd71144e">
    <diagram id="llTFPPFP62KqqNUjBacO" name="Page-1">
        <mxGraphModel dx="1014" dy="1732" grid="1" gridSize="10" guides="1" tooltips="1" connect="1" arrows="1" fold="1" page="1" pageScale="1" pageWidth="850" pageHeight="1100" math="0" shadow="0">
            <root>
                <mxCell id="0"/>
                <mxCell id="1" parent="0"/>
                <mxCell id="5" value="ATSAMD21 HAL" style="swimlane;horizontal=0;whiteSpace=wrap;html=1;" parent="1" vertex="1">
                    <mxGeometry x="10" y="390" width="830" height="180" as="geometry"/>
                </mxCell>
                <mxCell id="4" value="Watchdog (WDT)" style="rounded=0;whiteSpace=wrap;html=1;" parent="5" vertex="1">
                    <mxGeometry x="190" y="130" width="120" height="30" as="geometry"/>
                </mxCell>
                <mxCell id="6" value="Timer Counter (TC)" style="rounded=0;whiteSpace=wrap;html=1;" parent="5" vertex="1">
                    <mxGeometry x="330" y="30" width="120" height="30" as="geometry"/>
                </mxCell>
                <mxCell id="7" value="General Purpose I/O (GPIO)" style="rounded=0;whiteSpace=wrap;html=1;" parent="5" vertex="1">
                    <mxGeometry x="470" y="30" width="120" height="30" as="geometry"/>
                </mxCell>
                <mxCell id="8" value="Power Manager (PM)" style="rounded=0;whiteSpace=wrap;html=1;" parent="5" vertex="1">
                    <mxGeometry x="50" y="130" width="120" height="30" as="geometry"/>
                </mxCell>
                <mxCell id="9" value="Generic Clock Controller (GCLK)" style="rounded=0;whiteSpace=wrap;html=1;" parent="5" vertex="1">
                    <mxGeometry x="190" y="80" width="120" height="30" as="geometry"/>
                </mxCell>
                <mxCell id="10" value="Event System (EVSYS)" style="rounded=0;whiteSpace=wrap;html=1;" parent="5" vertex="1">
                    <mxGeometry x="330" y="80" width="120" height="30" as="geometry"/>
                </mxCell>
                <mxCell id="11" value="Real Time Clock (RTC)" style="rounded=0;whiteSpace=wrap;html=1;" parent="5" vertex="1">
                    <mxGeometry x="330" y="130" width="120" height="30" as="geometry"/>
                </mxCell>
                <mxCell id="12" value="Interrupt Controller (NVIC)" style="rounded=0;whiteSpace=wrap;html=1;" parent="5" vertex="1">
                    <mxGeometry x="50" y="80" width="120" height="30" as="geometry"/>
                </mxCell>
                <mxCell id="13" value="External Interrupt Controller (EIC)" style="rounded=0;whiteSpace=wrap;html=1;" parent="5" vertex="1">
                    <mxGeometry x="470" y="80" width="120" height="30" as="geometry"/>
                </mxCell>
                <mxCell id="15" value="Startup" style="rounded=0;whiteSpace=wrap;html=1;" parent="5" vertex="1">
                    <mxGeometry x="50" y="30" width="120" height="30" as="geometry"/>
                </mxCell>
                <mxCell id="16" value="Serial Communication (SERCOM)" style="rounded=0;whiteSpace=wrap;html=1;" parent="5" vertex="1">
                    <mxGeometry x="470" y="130" width="120" height="30" as="geometry"/>
                </mxCell>
                <mxCell id="14" value="System Controller (SYSCTRL)" style="rounded=0;whiteSpace=wrap;html=1;" parent="5" vertex="1">
                    <mxGeometry x="190" y="30" width="120" height="30" as="geometry"/>
                </mxCell>
                <mxCell id="39" value="Scheduler" style="rounded=0;whiteSpace=wrap;html=1;" parent="5" vertex="1">
                    <mxGeometry x="680" y="30" width="120" height="30" as="geometry"/>
                </mxCell>
                <mxCell id="59" value="Timer" style="rounded=0;whiteSpace=wrap;html=1;" vertex="1" parent="5">
                    <mxGeometry x="680" y="80" width="120" height="30" as="geometry"/>
                </mxCell>
                <mxCell id="17" value="Board Support Package" style="swimlane;horizontal=0;whiteSpace=wrap;html=1;" parent="1" vertex="1">
                    <mxGeometry x="10" y="230" width="830" height="140" as="geometry"/>
                </mxCell>
                <mxCell id="18" value="Board" style="rounded=0;whiteSpace=wrap;html=1;" parent="17" vertex="1">
                    <mxGeometry x="50" y="20" width="120" height="40" as="geometry"/>
                </mxCell>
                <mxCell id="19" value="Output Stage Handler" style="rounded=0;whiteSpace=wrap;html=1;" parent="17" vertex="1">
                    <mxGeometry x="190" y="20" width="120" height="40" as="geometry"/>
                </mxCell>
                <mxCell id="20" value="Sensor data" style="rounded=0;whiteSpace=wrap;html=1;" parent="17" vertex="1">
                    <mxGeometry x="190" y="80" width="120" height="40" as="geometry"/>
                </mxCell>
                <mxCell id="53" value="BMI08x" style="rounded=0;whiteSpace=wrap;html=1;" vertex="1" parent="17">
                    <mxGeometry x="470" y="20" width="120" height="40" as="geometry"/>
                </mxCell>
                <mxCell id="54" value="BMP5x" style="rounded=0;whiteSpace=wrap;html=1;" vertex="1" parent="17">
                    <mxGeometry x="470" y="80" width="120" height="40" as="geometry"/>
                </mxCell>
                <mxCell id="25" value="Application" style="swimlane;horizontal=0;whiteSpace=wrap;html=1;" parent="1" vertex="1">
                    <mxGeometry x="10" y="-70" width="830" height="280" as="geometry"/>
                </mxCell>
                <mxCell id="41" value="Tasks" style="rounded=0;whiteSpace=wrap;html=1;" parent="25" vertex="1">
                    <mxGeometry x="50" y="80" width="120" height="40" as="geometry"/>
                </mxCell>
                <mxCell id="42" value="Init" style="rounded=0;whiteSpace=wrap;html=1;" parent="25" vertex="1">
                    <mxGeometry x="50" y="20" width="120" height="40" as="geometry"/>
                </mxCell>
                <mxCell id="43" value="Speed Monitoring" style="rounded=0;whiteSpace=wrap;html=1;" parent="25" vertex="1">
                    <mxGeometry x="330" y="20" width="120" height="40" as="geometry"/>
                </mxCell>
                <mxCell id="45" value="Acceleration Monitoring" style="rounded=0;whiteSpace=wrap;html=1;" parent="25" vertex="1">
                    <mxGeometry x="330" y="140" width="120" height="40" as="geometry"/>
                </mxCell>
                <mxCell id="46" value="Distance Measurement" style="rounded=0;whiteSpace=wrap;html=1;" parent="25" vertex="1">
                    <mxGeometry x="330" y="80" width="120" height="40" as="geometry"/>
                </mxCell>
                <mxCell id="47" value="Communication&lt;br&gt;Handler" style="rounded=0;whiteSpace=wrap;html=1;" parent="25" vertex="1">
                    <mxGeometry x="190" y="20" width="120" height="40" as="geometry"/>
                </mxCell>
                <mxCell id="49" value="Diagnostics" style="rounded=0;whiteSpace=wrap;html=1;" vertex="1" parent="25">
                    <mxGeometry x="190" y="80" width="120" height="40" as="geometry"/>
                </mxCell>
                <mxCell id="50" value="Current monitor" style="rounded=0;whiteSpace=wrap;html=1;" vertex="1" parent="25">
                    <mxGeometry x="330" y="220" width="120" height="40" as="geometry"/>
                </mxCell>
                <mxCell id="51" value="Voltage monitor" style="rounded=0;whiteSpace=wrap;html=1;" vertex="1" parent="25">
                    <mxGeometry x="470" y="220" width="120" height="40" as="geometry"/>
                </mxCell>
                <mxCell id="55" value="System state" style="rounded=0;whiteSpace=wrap;html=1;" vertex="1" parent="25">
                    <mxGeometry x="470" y="20" width="120" height="40" as="geometry"/>
                </mxCell>
                <mxCell id="56" value="Ride monitor" style="rounded=0;whiteSpace=wrap;html=1;" vertex="1" parent="25">
                    <mxGeometry x="470" y="80" width="120" height="40" as="geometry"/>
                </mxCell>
                <mxCell id="52" value="Sensor control" style="rounded=0;whiteSpace=wrap;html=1;" vertex="1" parent="25">
                    <mxGeometry x="190" y="220" width="120" height="40" as="geometry"/>
                </mxCell>
                <mxCell id="44" value="iTPMS" style="rounded=0;whiteSpace=wrap;html=1;" parent="25" vertex="1">
                    <mxGeometry x="610" y="20" width="120" height="40" as="geometry"/>
                </mxCell>
                <mxCell id="57" value="Gear estimator" style="rounded=0;whiteSpace=wrap;html=1;" vertex="1" parent="25">
                    <mxGeometry x="610" y="80" width="120" height="40" as="geometry"/>
                </mxCell>
                <mxCell id="58" value="Cadence measurement" style="rounded=0;whiteSpace=wrap;html=1;" vertex="1" parent="25">
                    <mxGeometry x="610" y="140" width="120" height="40" as="geometry"/>
                </mxCell>
            </root>
        </mxGraphModel>
    </diagram>
</mxfile>